<?xml version="1.0" encoding="UTF-8"?><svg id="Layer_2" xmlns="http://www.w3.org/2000/svg" viewBox="0 0 198.46 192.15"><defs><style>.cls-1{fill:#6bbe9b;}</style></defs><path class="cls-1" d="M187.67,65.81c7.88,1.07,11.1,10.72,5.45,16.3l-40.53,40.05,9.54,57.41c1.26,7.58-6.74,13.29-13.5,9.65l-50.27-27.08-50.34,27.09c-6.89,3.71-15.02-2.17-13.64-9.88l10.16-56.98L3.02,81.63c-5.46-5.35-2.38-14.65,5.2-15.68l56.84-7.75L89.99,5.53c3.32-7.03,13.31-7.04,16.65-.02l25.12,52.76,55.91,7.54Zm-51.51,47.28l32.12-31.73-43.6-5.89c-3.11-.41-5.79-2.37-7.14-5.2l-19.2-40.32-19.16,40.49c-1.26,2.67-3.79,4.52-6.71,4.91l-44.03,6.01,31.86,31.26c2.27,2.22,3.3,5.43,2.74,8.56l-7.8,43.73,38.09-20.51c3.14-1.69,6.92-1.69,10.06,0l38.06,20.51-7.48-45.04c-.41-2.48,.4-5.01,2.19-6.78Z"/></svg>